<svg width="24" height="24" xmlns="http://www.w3.org/2000/svg">
 <!-- Created with Method Draw - http://github.com/duopixel/Method-Draw/ -->
 <g>
   <ellipse fill="none" stroke-width="1.5" stroke-opacity="null" fill-opacity="null" cx="3.803499" cy="20.236565" id="svg_13" rx="2.644225" ry="2.644225" stroke="#000"/>
   <ellipse fill="none" stroke-width="1.5" stroke-opacity="null" fill-opacity="null" cx="20.170245" cy="3.990011" id="svg_15" rx="2.644225" ry="2.644225" stroke="#000"/>
   <path d="m3.179219,17.148071c0,-0.188343 0,-0.376688 0,-1.067284c0,-0.439468 -0.034252,-1.131938 0,-1.443971c0.063159,-0.575359 0.306557,-1.009171 0.627814,-1.506752c0.245561,-0.38034 0.905457,-1.163516 1.255627,-1.506753c0.287083,-0.281398 0.848077,-0.678243 1.130064,-0.816158c0.64303,-0.314496 1.004502,-0.251125 2.009004,-0.251125c0.376688,0 1.262719,0.427447 1.695096,0.690596c1.085921,0.660901 1.480857,1.165091 2.574037,1.946222c0.552525,0.394806 1.796907,1.120134 2.448473,1.381189c0.792664,0.317587 0.96638,0.531589 1.946221,0.690596c0.247883,0.040226 0.78504,0.088271 1.067284,-0.062781c0.547964,-0.293262 0.67783,-0.884789 0.941721,-1.443972c0.179741,-0.380868 0.645689,-1.439253 0.753376,-1.883441c0.15085,-0.622222 0.322641,-2.070164 0.376688,-2.385692c0.1499,-0.875117 0.14913,-1.639729 0.251125,-2.071785c0.045614,-0.193222 0.062782,-0.43947 0.062782,-0.502251l0,-0.062781l0.06278,0l0,0" id="svg_5" fill-opacity="null" stroke-opacity="null" stroke-width="1.5" stroke="#000" fill="none"/>
 </g>
</svg>
